<?xml version="1.0" encoding="UTF-8"?>
<!DOCTYPE svg PUBLIC "-//W3C//DTD SVG 1.1//EN" "http://www.w3.org/Graphics/SVG/1.1/DTD/svg11.dtd">
<!-- Creator: CorelDRAW 2020 (64-Bit) -->
<svg xmlns="http://www.w3.org/2000/svg" xml:space="preserve" width="100mm" height="100mm" version="1.1"
     style="shape-rendering:geometricPrecision; text-rendering:geometricPrecision; image-rendering:optimizeQuality; fill-rule:evenodd; clip-rule:evenodd"
     viewBox="0 0 10000 10000"
>
 <defs>
  <style type="text/css">
   <![CDATA[
    .fil0 {fill:#FEFEFE}
   ]]>
  </style>
 </defs>
    <g id="Capa_x0020_1">
  <metadata id="CorelCorpID_0Corel-Layer"/>
        <g id="_2093287629216">
   <path class="fil0"
         d="M2967.44 4390.09c-198.79,-46.3 -772.87,-512.72 -988.79,-685.36 -21.75,-17.58 -32.57,-42.3 -61.94,-50.14 7.5,28.08 29.5,48.05 44.27,74.82 467.47,703.14 1021.88,1556.94 1767.03,1994.56 21.83,12.83 64.12,28.53 73.01,53.09 -210.83,5.86 -448.95,28.01 -651.45,28.01 58.62,87.62 613.4,380.37 730.87,438.94 380.84,193.65 1010.94,274.2 1353.75,-14.47 14.03,-11.82 19.2,-14.84 23.83,-32.19 -1.75,-0.47 -293.98,-188.58 -294.2,-189.13 269.14,-129.12 633.92,-23.67 931.64,0 -112.8,-422.58 -1250.79,-1342.11 -1618.26,-1586.58 -1181.88,-843.56 -1670.14,-1246.48 -2374.5,-2609.33 0,595.76 590.32,1913.67 974.76,2436.6 27.16,36.94 78.34,97.61 89.98,141.18z"/>
            <path class="fil0"
                  d="M2294.97 9622.72c53.19,-14.19 788.23,-745.07 1030.72,-923.64 1062.92,-782.79 1649.83,-658.26 2429.99,-1128.47 966.33,-581.96 1221.01,-1302.53 1641.24,-2267.46 462.57,-870 930.55,-1089.14 1925.8,-1139.23 20.38,-2.24 19.12,-13.33 19.12,-33 -542.56,16.28 -1098.14,35.24 -1607.11,249.17 -145.93,65.85 -187.78,77.44 -347.35,111.7 -669.8,130.48 -976.76,762.03 -1251.49,1315.55 -463.72,925.37 -1650.98,314.62 -2621.84,2197.49 -472.02,484.19 -879.4,1034.11 -1219.08,1617.89z"/>
            <path class="fil0"
                  d="M7828.79 4137.92c-20.2,-30.17 -67.6,-55.46 -98.03,-77.08 -871.7,-542.51 -1167.47,-5.01 -1554.96,742.68 -95.13,211.53 -184.64,336.13 -380.4,467.2 -26.6,17.82 -50.92,33.84 -89.07,37.01 836.82,-119.8 803.65,-1484.8 1867.45,-1251.03 78.36,22.01 185.07,64.93 255.01,81.22z"/>
            <path class="fil0"
                  d="M7289.42 4432.13c31.22,0 85.56,-26.72 102.94,-44.17 139.24,-139.86 -63.41,-374.64 -224.04,-210.03 -90.06,92.29 -9.23,254.2 121.1,254.2z"/>
            <polygon class="fil0" points="7828.8,4137.92 7828.8,4144.93 7836.97,4139.09 "/>
            <path class="fil0"
                  d="M4257.88 2855.08c-139.96,-160.27 -326.17,-863.15 -401.75,-1134.03 -7.37,-26.97 -1.71,-53.35 -20.95,-76.88 -10.34,27.17 -4.16,56.23 -7.81,86.58 -39.99,674.73 -83.46,1691.06 136.72,2310.04 640.44,413.81 1245.28,863.41 1747.94,1464.1 6.31,-16.58 -14.79,-251.26 -19.73,-308.69 -123.4,-860.57 -417.84,-1682.81 -711.56,-2498.79 -137,-380.59 -164.28,-753.25 -191.12,-1384.06 -15.99,-375.83 55.43,-797.95 110.92,-1172.23 -313.49,435.17 -639.05,1937.76 -633.15,2546.82 0.44,45.84 6.52,124.98 -9.51,167.14z"/>
  </g>
 </g>
</svg>
