<?xml version="1.0" encoding="UTF-8"?>
<!DOCTYPE svg PUBLIC "-//W3C//DTD SVG 1.1//EN" "http://www.w3.org/Graphics/SVG/1.1/DTD/svg11.dtd">
<!-- Creator: CorelDRAW 2020 (64-Bit) -->
<svg xmlns="http://www.w3.org/2000/svg" xml:space="preserve" width="297mm" height="210mm" version="1.1"
     style="shape-rendering:geometricPrecision; text-rendering:geometricPrecision; image-rendering:optimizeQuality; fill-rule:evenodd; clip-rule:evenodd"
     viewBox="0 0 29700 21000"
>
 <defs>
  <style type="text/css">
   <![CDATA[
    .fil0 {fill:rgba(255,255,255,0.15)}
   ]]>
  </style>
 </defs>
    <g id="Capa_x0020_1">
  <metadata id="CorelCorpID_0Corel-Layer"/>
        <g id="_2032290739920">
   <path class="fil0"
         d="M2149.76 7.15c3321.45,3423.76 9229.09,3805.46 13840.88,2915.34 2867.35,-553.43 5595.77,-1572.07 8163.17,-2915.34l403.5 0c-4819.4,2743.32 -10391.47,4479.26 -15745.66,3792.8 -3127.38,-400.96 -5951.14,-1574.71 -7857.69,-3792.8l1195.8 0z"/>
            <path class="fil0"
                  d="M-0.54 20248.56c6846.6,-7544.26 15941.3,-1197.95 24119.96,-1036.02 2190.35,43.36 4001.03,-386.46 5579.99,-1382.34l0 109.05c-3815.37,2513.72 -8501.55,1464.29 -13285.34,443.66 -5860.48,-1250.33 -11487.62,-2480.64 -15769.26,2624.24l-645.35 0 0 -758.59z"/>
            <path class="fil0"
                  d="M4309.09 21007.13c4547.64,-5647.72 10377.58,-8857.24 17700.95,-5999.8 2724.2,1062.94 5536.49,3009.66 7689.43,5158.82l0 56.33c-1980.18,-1859.12 -4493.65,-3548.21 -6898.28,-4550.84 -7202.08,-3002.95 -12849.12,-229 -17273.37,5335.49l-1218.73 0z"/>
  </g>
 </g>
</svg>
